<?xml version="1.0" standalone="no"?>
<!DOCTYPE svg PUBLIC "-//W3C//DTD SVG 20010904//EN"
 "http://www.w3.org/TR/2001/REC-SVG-20010904/DTD/svg10.dtd">
<svg version="1.0" xmlns="http://www.w3.org/2000/svg"
 width="200.000000pt" height="40pt" viewBox="70 70 100.000000 100.000000"
 preserveAspectRatio="xMidYMid meet">
<metadata>

</metadata>
<g transform="translate(0.000000,200.000000) scale(0.100000,-0.100000)"
fill="#000000" stroke="none">
<path d="M366 1337 c3 -10 9 -15 12 -12 3 3 0 11 -7 18 -10 9 -11 8 -5 -6z"/>
<path d="M405 1339 c-4 -6 -5 -12 -2 -15 2 -3 7 2 10 11 7 17 1 20 -8 4z"/>
<path d="M431 1334 c0 -11 3 -14 6 -6 3 7 2 16 -1 19 -3 4 -6 -2 -5 -13z"/>
<path d="M505 1299 c-4 -6 -5 -12 -2 -15 2 -3 7 2 10 11 7 17 1 20 -8 4z"/>
<path d="M339 1285 c-28 -15 -53 -48 -61 -80 -4 -18 0 -20 56 -20 38 -1 73 -7
93 -18 28 -15 38 -16 73 -5 45 14 45 15 26 63 -27 65 -122 95 -187 60z m120
-20 c16 -8 34 -28 39 -45 10 -26 8 -31 -9 -41 -16 -8 -29 -7 -54 5 -18 9 -54
16 -79 16 -46 0 -56 9 -37 38 24 38 93 52 140 27z"/>
<path d="M238 1193 c7 -3 16 -2 19 1 4 3 -2 6 -13 5 -11 0 -14 -3 -6 -6z"/>
<path d="M558 1193 c7 -3 16 -2 19 1 4 3 -2 6 -13 5 -11 0 -14 -3 -6 -6z"/>
<path d="M257 1163 c-3 -5 19 -9 49 -9 39 -1 67 -9 105 -31 l53 -30 43 25 c30
16 67 26 111 30 46 3 61 8 47 13 -34 13 -98 9 -151 -9 -48 -17 -52 -17 -90 0
-39 18 -158 25 -167 11z"/>
<path d="M820 1130 c0 -5 5 -10 10 -10 6 0 10 -30 10 -70 0 -40 -4 -70 -10
-70 -5 0 -10 -4 -10 -10 0 -5 14 -10 30 -10 17 0 30 5 30 10 0 6 -4 10 -10 10
-6 0 -10 33 -10 80 0 73 -2 80 -20 80 -11 0 -20 -4 -20 -10z"/>
<path d="M565 1119 c-16 -4 -24 -7 -17 -8 15 -1 17 -131 2 -131 -5 0 -10 -4
-10 -10 0 -5 14 -10 30 -10 17 0 30 5 30 10 0 6 -4 10 -10 10 -5 0 -10 14 -10
30 0 17 4 30 8 30 14 0 53 -60 47 -70 -4 -6 7 -10 24 -10 17 0 31 5 31 10 0 6
-5 10 -10 10 -13 0 -59 51 -60 65 0 6 14 24 30 42 17 18 30 33 30 35 0 2 -11
3 -25 3 -14 0 -24 -4 -23 -10 3 -13 -32 -65 -43 -65 -14 0 -11 58 4 63 23 8 2
13 -28 6z"/>
<path d="M740 1083 c-41 -14 -54 -78 -21 -107 20 -18 80 -19 71 -1 -3 5 -16 8
-29 6 -21 -2 -40 12 -41 32 0 4 18 7 41 7 36 0 40 3 37 21 -4 25 -37 49 -58
42z m24 -19 c28 -11 18 -34 -14 -34 -28 0 -30 2 -20 20 12 22 12 22 34 14z"/>
<path d="M923 1080 c-23 -9 -29 -21 -16 -33 3 -4 11 1 18 10 14 19 45 11 45
-12 0 -9 -9 -15 -24 -15 -28 0 -49 -22 -44 -47 3 -14 14 -18 57 -20 41 -2 51
1 43 9 -7 7 -12 31 -12 55 0 32 -5 45 -19 53 -22 11 -19 11 -48 0z m45 -77
c-4 -23 -48 -31 -48 -9 0 13 14 21 43 25 5 0 7 -7 5 -16z"/>
<path d="M1082 1081 c-7 -4 -25 -6 -40 -4 -15 2 -21 0 -14 -3 14 -7 17 -94 2
-94 -5 0 -10 -4 -10 -10 0 -5 14 -10 30 -10 17 0 30 5 30 10 0 6 -4 10 -10 10
-5 0 -10 16 -10 36 0 27 5 37 20 41 11 3 20 12 20 19 0 16 -1 16 -18 5z"/>
<path d="M152 1067 c26 -8 53 -19 61 -25 11 -10 21 -9 43 3 16 8 46 15 67 15
26 0 36 4 31 11 -4 7 -22 9 -53 4 -52 -8 -74 -8 -146 0 l-50 5 47 -13z"/>
<path d="M227 950 c22 -5 58 -17 80 -28 37 -20 39 -20 73 -1 20 10 57 18 85
19 36 0 46 3 35 10 -21 13 -78 12 -121 -4 -30 -11 -41 -11 -60 0 -13 7 -49 13
-79 13 l-55 -1 42 -8z"/>
<path d="M1250 885 c-41 -13 -85 -24 -97 -24 -24 -1 -38 -16 -28 -30 3 -6 29
-2 61 9 l56 20 -5 -33 c-22 -127 -19 -187 9 -187 16 0 19 21 4 36 -6 6 -6 40
2 98 13 97 23 108 96 108 20 0 32 4 29 12 -6 18 -47 15 -127 -9z"/>
<path d="M1341 790 c-43 -41 -48 -58 -31 -91 25 -46 122 0 134 64 15 79 -36
92 -103 27z m80 -33 c-12 -31 -55 -61 -76 -53 -26 9 -17 43 21 76 32 27 39 30
51 18 10 -11 11 -21 4 -41z"/>
<path d="M1675 821 c-16 -4 -41 -14 -55 -22 l-25 -14 23 -3 c19 -3 22 -9 22
-51 0 -31 5 -53 15 -61 21 -17 29 -7 16 18 -12 23 -15 99 -3 105 4 3 28 8 55
11 61 9 62 -6 5 -55 -40 -35 -42 -39 -27 -54 15 -15 26 -16 108 -5 50 7 91 17
91 21 0 12 -31 11 -104 -1 -32 -5 -63 -7 -68 -4 -5 3 9 23 32 44 55 51 52 74
-10 77 -25 1 -58 -2 -75 -6z"/>
<path d="M1474 773 c-16 -40 -10 -83 13 -91 7 -2 26 10 43 26 26 27 30 28 30
11 0 -21 23 -35 40 -24 8 5 6 13 -7 27 -10 11 -17 22 -15 24 1 2 2 15 2 29 0
33 -18 32 -31 -2 -12 -32 -38 -63 -52 -63 -6 0 -7 20 -3 50 4 28 4 50 1 50 -2
0 -12 -17 -21 -37z"/>
</g>
</svg>
